<?xml version="1.0" encoding="UTF-8"?>
<svg xmlns="http://www.w3.org/2000/svg" viewBox="0 0 64 64" width="64" height="64" aria-hidden="true">
  <title>Car Icon</title>
  <g fill="#e11d48">
    <path d="M12 38c-1.657 0-3-1.343-3-3v-3.5c0-1.64 1.007-3.112 2.54-3.69l6.63-2.52A18 18 0 0 1 29.1 20h5.8c3.98 0 7.84 1.29 11 3.67l6.3 4.83A6 6 0 0 1 54 33.82V35c0 1.657-1.343 3-3 3h-2v2c0 1.105-.895 2-2 2h-4a2 2 0 0 1-2-2v-2H23v2a2 2 0 0 1-2 2h-4a2 2 0 0 1-2-2v-2h-3Zm8.5-6.5a4.5 4.5 0 1 0 0 9 4.5 4.5 0 0 0 0-9Zm23 0a4.5 4.5 0 1 0 0 9 4.5 4.5 0 0 0 0-9Z"/>
    <path d="M8 35h48v3a3 3 0 0 1-3 3H11a3 3 0 0 1-3-3v-3z" opacity=".2"/>
  </g>
</svg>